<?xml version="1.0" encoding="UTF-8" standalone="no"?>
<!DOCTYPE svg PUBLIC "-//W3C//DTD SVG 1.1//EN"
 "http://www.w3.org/Graphics/SVG/1.1/DTD/svg11.dtd">
<!-- Generated by graphviz version 2.42.4 (0)
 -->
<!-- Title: flow Pages: 1 -->
<svg width="1692pt" height="1521pt"
 viewBox="0.00 0.00 870.20 782.20" xmlns="http://www.w3.org/2000/svg" xmlns:xlink="http://www.w3.org/1999/xlink">
<g id="graph0" class="graph" transform="scale(1.94 1.94) rotate(0) translate(21.6 760.6)">
<title>flow</title>
<polygon fill="white" stroke="transparent" points="-21.6,21.6 -21.6,-760.6 848.6,-760.6 848.6,21.6 -21.6,21.6"/>
<text text-anchor="middle" x="413.5" y="-717.4" font-family="Arial" font-size="22.00">Check My Meal v2.0 | Attempt and expiry</text>
<!-- create -->
<g id="node1" class="node">
<title>create</title>
<path fill="#edf5fc" stroke="#557895" d="M665,-707C665,-707 407,-707 407,-707 401,-707 395,-701 395,-695 395,-695 395,-673 395,-673 395,-667 401,-661 407,-661 407,-661 665,-661 665,-661 671,-661 677,-667 677,-673 677,-673 677,-695 677,-695 677,-701 671,-707 665,-707"/>
<text text-anchor="middle" x="536" y="-687.4" font-family="Arial" font-size="12.00">Server creates attempt while free access is valid</text>
<text text-anchor="middle" x="536" y="-674.4" font-family="Arial" font-size="12.00">expiresAt = createdAt + 60 minutes</text>
</g>
<!-- draft -->
<g id="node2" class="node">
<title>draft</title>
<path fill="#edf5fc" stroke="#557895" d="M522,-617.5C522,-617.5 234,-617.5 234,-617.5 228,-617.5 222,-611.5 222,-605.5 222,-605.5 222,-583.5 222,-583.5 222,-577.5 228,-571.5 234,-571.5 234,-571.5 522,-571.5 522,-571.5 528,-571.5 534,-577.5 534,-583.5 534,-583.5 534,-605.5 534,-605.5 534,-611.5 528,-617.5 522,-617.5"/>
<text text-anchor="middle" x="378" y="-597.9" font-family="Arial" font-size="12.00">DRAFT / RECOGNISING / NEEDS_CONFIRMATION</text>
<text text-anchor="middle" x="378" y="-584.9" font-family="Arial" font-size="12.00">User maps and confirms current revision</text>
</g>
<!-- create&#45;&gt;draft -->
<g id="edge1" class="edge">
<title>create&#45;&gt;draft</title>
<path fill="none" stroke="#557895" d="M496.13,-660.92C475.08,-649.26 449.07,-634.86 426.82,-622.53"/>
<polygon fill="#557895" stroke="#557895" points="428.3,-619.36 417.86,-617.57 424.91,-625.48 428.3,-619.36"/>
</g>
<!-- note -->
<g id="node9" class="node">
<title>note</title>
<polygon fill="#f4f6f8" stroke="#557895" points="821,-624 563,-624 563,-565 827,-565 827,-618 821,-624"/>
<polyline fill="none" stroke="#557895" points="821,-624 821,-618 "/>
<polyline fill="none" stroke="#557895" points="827,-618 821,-618 "/>
<text text-anchor="middle" x="695" y="-604.4" font-family="Arial" font-size="12.00">Day 7 can end during an attempt.</text>
<text text-anchor="middle" x="695" y="-591.4" font-family="Arial" font-size="12.00">Its original deadline never extends.</text>
<text text-anchor="middle" x="695" y="-578.4" font-family="Arial" font-size="12.00">Active Day 2 cannot revive a 61&#45;minute draft.</text>
</g>
<!-- create&#45;&gt;note -->
<g id="edge11" class="edge">
<title>create&#45;&gt;note</title>
<path fill="none" stroke="#557895" stroke-dasharray="5,2" d="M576.12,-660.92C596.45,-649.73 621.38,-636.01 643.15,-624.03"/>
</g>
<!-- gate -->
<g id="node3" class="node">
<title>gate</title>
<path fill="#fff3d9" stroke="#557895" d="M238.44,-524.8C238.44,-524.8 48.56,-472.2 48.56,-472.2 42.78,-470.6 42.78,-467.4 48.56,-465.8 48.56,-465.8 238.44,-413.2 238.44,-413.2 244.22,-411.6 255.78,-411.6 261.56,-413.2 261.56,-413.2 451.44,-465.8 451.44,-465.8 457.22,-467.4 457.22,-470.6 451.44,-472.2 451.44,-472.2 261.56,-524.8 261.56,-524.8 255.78,-526.4 244.22,-526.4 238.44,-524.8"/>
<text text-anchor="middle" x="250" y="-478.9" font-family="Arial" font-size="12.00">Ownership + account + deadline</text>
<text text-anchor="middle" x="250" y="-465.9" font-family="Arial" font-size="12.00">+ current confirmation + safeguards</text>
<text text-anchor="middle" x="250" y="-452.9" font-family="Arial" font-size="12.00">+ non&#45;revoked versions valid?</text>
</g>
<!-- draft&#45;&gt;gate -->
<g id="edge2" class="edge">
<title>draft&#45;&gt;gate</title>
<path fill="none" stroke="#557895" d="M355.12,-571.42C340.96,-557.76 322.15,-539.61 304.35,-522.44"/>
<polygon fill="#557895" stroke="#557895" points="306.43,-519.59 296.81,-515.16 301.57,-524.62 306.43,-519.59"/>
</g>
<!-- end -->
<g id="node7" class="node">
<title>end</title>
<path fill="#edf5fc" stroke="#557895" d="M443,-142C443,-142 193,-142 193,-142 187,-142 181,-136 181,-130 181,-130 181,-108 181,-108 181,-102 187,-96 193,-96 193,-96 443,-96 443,-96 449,-96 455,-102 455,-108 455,-108 455,-130 455,-130 455,-136 449,-142 443,-142"/>
<text text-anchor="middle" x="318" y="-122.4" font-family="Arial" font-size="12.00">CANCELLED / FAILED / EXPIRED</text>
<text text-anchor="middle" x="318" y="-109.4" font-family="Arial" font-size="12.00">No completed&#45;history item; cancel late workers</text>
</g>
<!-- draft&#45;&gt;end -->
<g id="edge8" class="edge">
<title>draft&#45;&gt;end</title>
<path fill="none" stroke="#557895" d="M426.03,-571.43C462.71,-550.91 507,-516.51 507,-470 507,-470 507,-470 507,-246 507,-196 460.63,-164.62 413.83,-145.68"/>
<polygon fill="#557895" stroke="#557895" points="415.07,-142.4 404.48,-142.05 412.54,-148.93 415.07,-142.4"/>
<text text-anchor="middle" x="559" y="-337.5" font-family="Arial" font-size="10.00">Cancel / terminal failure</text>
</g>
<!-- calc -->
<g id="node4" class="node">
<title>calc</title>
<path fill="#edf5fc" stroke="#557895" d="M343.5,-363C343.5,-363 134.5,-363 134.5,-363 128.5,-363 122.5,-357 122.5,-351 122.5,-351 122.5,-329 122.5,-329 122.5,-323 128.5,-317 134.5,-317 134.5,-317 343.5,-317 343.5,-317 349.5,-317 355.5,-323 355.5,-329 355.5,-329 355.5,-351 355.5,-351 355.5,-357 349.5,-363 343.5,-363"/>
<text text-anchor="middle" x="239" y="-343.4" font-family="Arial" font-size="12.00">Calculate and atomically commit</text>
<text text-anchor="middle" x="239" y="-330.4" font-family="Arial" font-size="12.00">Recheck deadline and revision at save</text>
</g>
<!-- gate&#45;&gt;calc -->
<g id="edge3" class="edge">
<title>gate&#45;&gt;calc</title>
<path fill="none" stroke="#557895" d="M245.08,-411.19C243.95,-398.14 242.79,-384.71 241.78,-373.14"/>
<polygon fill="#557895" stroke="#557895" points="245.26,-372.76 240.91,-363.1 238.29,-373.37 245.26,-372.76"/>
<text text-anchor="middle" x="252.5" y="-384" font-family="Arial" font-size="10.00">Yes</text>
</g>
<!-- no -->
<g id="node6" class="node">
<title>no</title>
<path fill="#fce9e8" stroke="#557895" d="M451.5,-270C451.5,-270 184.5,-270 184.5,-270 178.5,-270 172.5,-264 172.5,-258 172.5,-258 172.5,-236 172.5,-236 172.5,-230 178.5,-224 184.5,-224 184.5,-224 451.5,-224 451.5,-224 457.5,-224 463.5,-230 463.5,-236 463.5,-236 463.5,-258 463.5,-258 463.5,-264 457.5,-270 451.5,-270"/>
<text text-anchor="middle" x="318" y="-250.4" font-family="Arial" font-size="12.00">Block commit with typed reason</text>
<text text-anchor="middle" x="318" y="-237.4" font-family="Arial" font-size="12.00">Fix within deadline or start a NEW eligible attempt</text>
</g>
<!-- gate&#45;&gt;no -->
<g id="edge4" class="edge">
<title>gate&#45;&gt;no</title>
<path fill="none" stroke="#557895" d="M308.23,-426.09C329.73,-408.46 352.98,-386.56 370,-363 388.08,-337.97 390.88,-329.26 397,-299 397.97,-294.21 399.56,-292.17 397,-288 394.42,-283.8 391.25,-280.03 387.67,-276.63"/>
<polygon fill="#557895" stroke="#557895" points="389.77,-273.83 379.82,-270.2 385.33,-279.25 389.77,-273.83"/>
<text text-anchor="middle" x="400.5" y="-337.5" font-family="Arial" font-size="10.00">No</text>
</g>
<!-- saved -->
<g id="node5" class="node">
<title>saved</title>
<path fill="#e2f3ec" stroke="#557895" d="M254,-206C254,-206 12,-206 12,-206 6,-206 0,-200 0,-194 0,-194 0,-172 0,-172 0,-166 6,-160 12,-160 12,-160 254,-160 254,-160 260,-160 266,-166 266,-172 266,-172 266,-194 266,-194 266,-200 260,-206 254,-206"/>
<text text-anchor="middle" x="133" y="-186.4" font-family="Arial" font-size="12.00">COMPLETED</text>
<text text-anchor="middle" x="133" y="-173.4" font-family="Arial" font-size="12.00">One immutable result; replay returns same ID</text>
</g>
<!-- calc&#45;&gt;saved -->
<g id="edge5" class="edge">
<title>calc&#45;&gt;saved</title>
<path fill="none" stroke="#557895" d="M170.9,-316.79C163.31,-311.95 156.38,-306.08 151,-299 133.14,-275.49 129.8,-241.35 130.23,-216.37"/>
<polygon fill="#557895" stroke="#557895" points="133.73,-216.42 130.61,-206.29 126.73,-216.15 133.73,-216.42"/>
<text text-anchor="middle" x="189" y="-291" font-family="Arial" font-size="10.00">Checks still valid</text>
</g>
<!-- calc&#45;&gt;no -->
<g id="edge6" class="edge">
<title>calc&#45;&gt;no</title>
<path fill="none" stroke="#557895" d="M232.88,-317C231.49,-307.44 231.71,-296.5 237,-288 239.61,-283.81 242.79,-280.04 246.38,-276.66"/>
<polygon fill="#557895" stroke="#557895" points="248.71,-279.28 254.25,-270.25 244.29,-273.85 248.71,-279.28"/>
<text text-anchor="middle" x="315.5" y="-291" font-family="Arial" font-size="10.00">Deadline / revision / safety changed</text>
</g>
<!-- clean -->
<g id="node8" class="node">
<title>clean</title>
<path fill="#edf5fc" stroke="#557895" d="M276.5,-59C276.5,-59 27.5,-59 27.5,-59 21.5,-59 15.5,-53 15.5,-47 15.5,-47 15.5,-12 15.5,-12 15.5,-6 21.5,0 27.5,0 27.5,0 276.5,0 276.5,0 282.5,0 288.5,-6 288.5,-12 288.5,-12 288.5,-47 288.5,-47 288.5,-53 282.5,-59 276.5,-59"/>
<text text-anchor="middle" x="152" y="-39.4" font-family="Arial" font-size="12.00">Transient cleanup</text>
<text text-anchor="middle" x="152" y="-26.4" font-family="Arial" font-size="12.00">Terminal &lt;=15 min; abandoned &lt;=24 h</text>
<text text-anchor="middle" x="152" y="-13.4" font-family="Arial" font-size="12.00">Subject to privacy approval; NOT authorisation</text>
</g>
<!-- saved&#45;&gt;clean -->
<g id="edge9" class="edge">
<title>saved&#45;&gt;clean</title>
<path fill="none" stroke="#557895" d="M135.76,-159.97C138.74,-136.22 143.54,-97.94 147.15,-69.15"/>
<polygon fill="#557895" stroke="#557895" points="150.65,-69.38 148.42,-59.02 143.71,-68.51 150.65,-69.38"/>
</g>
<!-- no&#45;&gt;end -->
<g id="edge7" class="edge">
<title>no&#45;&gt;end</title>
<path fill="none" stroke="#557895" d="M318,-223.76C318,-203.88 318,-174.51 318,-152.08"/>
<polygon fill="#557895" stroke="#557895" points="321.5,-152.01 318,-142.01 314.5,-152.01 321.5,-152.01"/>
</g>
<!-- end&#45;&gt;clean -->
<g id="edge10" class="edge">
<title>end&#45;&gt;clean</title>
<path fill="none" stroke="#557895" d="M276.11,-95.92C257.62,-86.17 235.49,-74.51 215.07,-63.74"/>
<polygon fill="#557895" stroke="#557895" points="216.61,-60.6 206.13,-59.03 213.35,-66.79 216.61,-60.6"/>
</g>
</g>
</svg>
